<?xml version="1.0" standalone="no"?>
<!DOCTYPE svg PUBLIC "-//W3C//DTD SVG 20010904//EN"
 "http://www.w3.org/TR/2001/REC-SVG-20010904/DTD/svg10.dtd">
<svg version="1.0" xmlns="http://www.w3.org/2000/svg"
 width="1024.000000pt" height="1024.000000pt" viewBox="0 0 1024.000000 1024.000000"
 preserveAspectRatio="xMidYMid meet">

<g transform="translate(0.000000,1024.000000) scale(0.100000,-0.100000)"
fill="#000000" stroke="none">
<path d="M4930 8354 c-19 -2 -82 -9 -140 -15 -616 -65 -1252 -364 -1651 -776
-420 -433 -645 -1051 -600 -1650 30 -402 141 -733 355 -1058 273 -415 674
-721 1152 -880 398 -132 885 -139 1282 -19 118 36 305 104 299 110 -1 2 -37
-8 -78 -21 -181 -57 -412 -77 -606 -51 -340 45 -644 198 -897 453 -100 100
-154 167 -216 268 -100 163 -173 356 -218 575 -25 126 -27 152 -27 390 0 201
4 278 18 364 127 750 560 1358 1171 1641 285 132 609 185 996 164 409 -23 767
-137 1085 -346 148 -98 231 -166 360 -297 390 -397 653 -964 740 -1601 9 -66
19 -221 23 -345 6 -250 13 -241 32 40 29 425 -51 889 -222 1290 -144 338 -331
619 -589 885 -467 480 -1038 769 -1704 860 -105 15 -491 28 -565 19z"/>
<path d="M5340 7054 c-14 -2 -65 -9 -115 -15 -125 -15 -308 -60 -448 -109 -65
-24 -116 -44 -115 -46 2 -1 36 6 76 16 447 117 901 24 1289 -264 95 -71 257
-236 326 -332 151 -214 251 -475 291 -763 23 -164 21 -441 -4 -615 -110 -747
-538 -1371 -1140 -1660 -269 -129 -534 -185 -881 -186 -764 -1 -1395 320
-1835 935 -168 234 -296 503 -394 825 -83 274 -119 506 -128 825 -7 251 -12
244 -31 -38 -49 -715 195 -1455 664 -2016 954 -1142 2613 -1378 3846 -545 145
97 239 173 334 269 502 508 726 1234 595 1937 -169 914 -890 1612 -1820 1764
-90 14 -455 28 -510 18z"/>
</g>
</svg>
