<svg id="Layer_1" data-name="Layer 1" xmlns="http://www.w3.org/2000/svg" viewBox="0 0 473.59 60.04"><defs><style>.cls-1{fill:#ed1c24;}.cls-2{fill:#ffd105;}</style></defs><title>logobb</title><path class="cls-1" d="M62,42.62l.29.26.32-.26Zm13.63-39L10.22,55.18H37.57l10.22-8.09,54.66-43.5Z"/><polygon class="cls-1" points="105.51 8.48 105.51 55.18 75.73 55.18 75.61 55.07 46.96 55.07 62.29 42.88 62.61 42.62 83.22 42.62 83.22 26.22 105.51 8.48"/><path class="cls-2" d="M151.39,10.29l16.82,37h-5.1L159,38.17H143.86l-4.09,9.11h-5.06Zm0,11.12-5.7,12.7h11.46Z"/><path class="cls-2" d="M186.13,27l-3.24,2.86a17.54,17.54,0,0,0-2.18-1.36,4.8,4.8,0,0,0-2.18-.46c-2,0-3,.72-3,2.18,0,1,1.26,2.06,3.76,3a14.71,14.71,0,0,1,5.41,3.24,6,6,0,0,1,1.65,4.24A6.66,6.66,0,0,1,184,45.76a8.07,8.07,0,0,1-5.6,2.17q-4.89,0-8-4.53l3.83-1.85a6,6,0,0,0,4.19,2,4.4,4.4,0,0,0,2.65-.83,2.37,2.37,0,0,0,1.13-1.91q0-1.94-4-3.47a15.93,15.93,0,0,1-5.5-3.12,5.44,5.44,0,0,1-1.52-3.9,6.13,6.13,0,0,1,2.17-4.8,7.94,7.94,0,0,1,5.44-1.91Q182.08,23.57,186.13,27Z"/><path class="cls-2" d="M192.84,17.5h4.87v6.71h4.81v4.45h-4.81V47.28h-4.87V28.66H189v-4.5h3.83Z"/><path class="cls-2" d="M212.22,24.21V29a14.62,14.62,0,0,1,3.18-4.13,6.15,6.15,0,0,1,4-1.27,9.05,9.05,0,0,1,2,.33L220,28.77a11.64,11.64,0,0,0-1.85-.28A5.49,5.49,0,0,0,214,30.21a5.94,5.94,0,0,0-1.67,4.29V47.28h-4.86V24.21Z"/><path class="cls-2" d="M223.43,35.65a11.48,11.48,0,0,1,3.74-8.4,11.87,11.87,0,0,1,8.57-3.68,12.09,12.09,0,0,1,8.7,3.62,11.49,11.49,0,0,1,3.71,8.46,11.86,11.86,0,0,1-3.64,8.57,11.53,11.53,0,0,1-8.44,3.71,12.29,12.29,0,0,1-8.87-3.67A11.63,11.63,0,0,1,223.43,35.65Zm20,0a6.9,6.9,0,0,0-2.24-5.11,7.35,7.35,0,0,0-5.31-2.17,7.54,7.54,0,0,0-5.44,2.2,7.05,7.05,0,0,0-2.28,5.25,6.82,6.82,0,0,0,2.31,5.1,7.59,7.59,0,0,0,5.41,2.19,7.29,7.29,0,0,0,5.28-2.24A7.15,7.15,0,0,0,243.46,35.66Z"/><path class="cls-2" d="M282.63,12.89V18.4A24.23,24.23,0,0,0,272,15.57a14.67,14.67,0,0,0-10.46,4,13,13,0,0,0-4.25,9.85,12.92,12.92,0,0,0,4.35,9.93,15.5,15.5,0,0,0,10.89,4,20.63,20.63,0,0,0,10.06-3v5.56a21.91,21.91,0,0,1-10.48,2.57A19.73,19.73,0,0,1,258,42.88a18,18,0,0,1-5.87-13.51,17.76,17.76,0,0,1,5.77-13.3,19.38,19.38,0,0,1,13.91-5.53A27.75,27.75,0,0,1,282.63,12.89Z"/><path class="cls-2" d="M287.05,16.64A3.55,3.55,0,0,1,288.17,14a3.64,3.64,0,0,1,2.66-1.1,3.77,3.77,0,0,1,3.72,3.72,3.53,3.53,0,0,1-1.11,2.62,3.57,3.57,0,0,1-2.61,1.09,3.67,3.67,0,0,1-2.66-1.09A3.5,3.5,0,0,1,287.05,16.64Zm1.37,7.57h4.81V47.28h-4.81Z"/><path class="cls-2" d="M299.61,47.28V24.21h4.75V28a19.5,19.5,0,0,1,3.8-3.39A7,7,0,0,1,312,23.57a7.58,7.58,0,0,1,5.35,2.07,6.57,6.57,0,0,1,2.22,5V47.28h-4.86V32a4.23,4.23,0,0,0-1.22-3.1,4.16,4.16,0,0,0-3.09-1.23,5.34,5.34,0,0,0-4.19,2.05,7.36,7.36,0,0,0-1.76,5V47.28Z"/><path class="cls-2" d="M348.63,36.68H328.94a7.75,7.75,0,0,0,2.92,5.19,8.36,8.36,0,0,0,5,1.64,8.6,8.6,0,0,0,6.93-3.44l3.55,2.68a12.83,12.83,0,0,1-10.71,5.18A11.59,11.59,0,0,1,328,44.4a12,12,0,0,1-3.47-8.75A11.76,11.76,0,0,1,328,27.16a11.91,11.91,0,0,1,17.1.06A12.83,12.83,0,0,1,348.63,36.68ZM329.44,32.8h14.1Q341.19,28,336.6,28A7.37,7.37,0,0,0,329.44,32.8Z"/><path class="cls-2" d="M353.77,47.28V24.21h4.81v3.55a14.1,14.1,0,0,1,3.26-3.18,6.32,6.32,0,0,1,3.57-1,6.59,6.59,0,0,1,4.12,1.15,8.55,8.55,0,0,1,2.53,3.66,14.94,14.94,0,0,1,3.52-3.66,6.87,6.87,0,0,1,3.95-1.15,6.35,6.35,0,0,1,4.74,2.06,6.75,6.75,0,0,1,2,4.87V47.28H381.4V31.76q0-3.82-3.79-3.83a4.47,4.47,0,0,0-3.66,2,7.72,7.72,0,0,0-1.5,4.84V47.28h-4.86V32.41q0-4.53-3.72-4.53a4.69,4.69,0,0,0-3.75,1.84,6.86,6.86,0,0,0-1.54,4.56v13Z"/><path class="cls-2" d="M411.85,24.21h4.87V47.28h-4.87V42.7q-3.56,5.22-8.81,5.23a10.12,10.12,0,0,1-7.78-3.58,12.51,12.51,0,0,1-3.23-8.7,12.27,12.27,0,0,1,3.25-8.46,10,10,0,0,1,7.65-3.62,9.75,9.75,0,0,1,5.15,1.48,10.56,10.56,0,0,1,3.77,3.86Zm.67,11.61a7.31,7.31,0,0,0-2.27-5.41,7.64,7.64,0,0,0-10.81,0,7.12,7.12,0,0,0-2.3,5.26,7.66,7.66,0,0,0,2.24,5.56,7.7,7.7,0,0,0,13.14-5.39Z"/><path class="cls-2" d="M437.94,27l-3.24,2.86a17.54,17.54,0,0,0-2.18-1.36,4.83,4.83,0,0,0-2.18-.46c-2,0-3,.72-3,2.18,0,1,1.26,2.06,3.76,3a14.71,14.71,0,0,1,5.41,3.24,6,6,0,0,1,1.65,4.24,6.66,6.66,0,0,1-2.37,5.07,8.07,8.07,0,0,1-5.6,2.17q-4.89,0-8-4.53L426,41.55a6,6,0,0,0,4.19,2,4.4,4.4,0,0,0,2.65-.83A2.37,2.37,0,0,0,434,40.77c0-1.29-1.33-2.45-4-3.47a15.93,15.93,0,0,1-5.5-3.12,5.44,5.44,0,0,1-1.52-3.9,6.13,6.13,0,0,1,2.17-4.8,7.92,7.92,0,0,1,5.44-1.91Q433.89,23.57,437.94,27Z"/></svg>